<?xml version="1.0" encoding="utf-8"?>
<!-- Generator: Adobe Illustrator 23.0.0, SVG Export Plug-In . SVG Version: 6.00 Build 0)  -->
<svg version="1.1" id="Camada_1" xmlns="http://www.w3.org/2000/svg" xmlns:xlink="http://www.w3.org/1999/xlink" x="0px" y="0px"
	 viewBox="0 0 938.1 250" style="enable-background:new 0 0 938.1 250;" xml:space="preserve">
<style type="text/css">
	.st0{fill:#FFFFFF;}
</style>
<title>Prancheta 1</title>
<path class="st0" d="M282.1,246.2c-7.8,0-15.4,1.9-22.2,5.7c-13.9-21-39.5-31.1-64-25.3c-5.5-43.4-45.1-74.1-88.5-68.6
	c-39.6,5-69.2,38.7-69.2,78.6c0,0.1,0,0.2,0,0.2c-1.6-0.2-3.2-0.2-4.8-0.2c-26.7,0-48.4,21.6-48.4,48.3c0,0,0,0,0,0.1h342.7
	C324.1,262.6,304.7,246.2,282.1,246.2z"/>
<path class="st0" d="M716.4,256.2c-7.8,0-15.4,1.9-22.2,5.7c-13.9-21-39.5-31.1-64-25.3c-5.5-43.4-45.2-74-88.6-68.5
	c-39.5,5.1-69.1,38.7-69.1,78.5v0.2c-1.6-0.2-3.2-0.2-4.8-0.2c-26.7,0-48.4,21.6-48.4,48.3c0,0,0,0.1,0,0.1H762
	C758.4,272.6,739.1,256.2,716.4,256.2z"/>
<path class="st0" d="M189.9,290c0-0.1,0-0.3,0-0.5c0-21.5,17.5-39,39-39c8.9,0,17.5,3,24.4,8.6c9.1-18.4,27.9-30,48.4-30
	c2.1,0,4.2,0.1,6.3,0.4c8.7-18.8,30.9-27.2,49.8-18.7c15.5-31,53.2-43.6,84.3-28c21.3,10.6,34.7,32.4,34.7,56.1c0,4-0.4,8-1.1,11.9
	c18.9,3.6,32.5,20.1,32.5,39.3H189.9z"/>
<path class="st0" d="M935.1,284c7.5-16.9,0-36.6-16.9-44.1c-9.8-4.4-21-3.8-30.3,1.5c-4-25.5-27.9-43-53.5-39
	c-2,0.3-3.9,0.7-5.8,1.3c-10.4-32.2-45.1-49.9-77.3-39.5c-20.3,6.6-35.8,23.3-40.8,44.1c-9.5-2.3-19.1,3.6-21.4,13.2
	c-0.7,2.8-0.6,5.8,0.1,8.6c-13,1.5-24.5,9.2-30.8,20.7c-1-0.1-2.1-0.2-3.2-0.2c-18.5,0-33.4,15-33.4,33.4l0,0H935.1z"/>
<path class="st0" d="M938.1,250h-19.9v-9.3c0.3,0.3,0.5,0.6,0.7,0.9c1.9-0.9,4.1-1.4,6.3-1.4C931.6,240.2,937.1,244.3,938.1,250z"/>
</svg>
